<?xml version="1.0" encoding="UTF-8"?>
<svg width="28px" height="24px" viewBox="0 0 28 24" version="1.1" xmlns="http://www.w3.org/2000/svg" xmlns:xlink="http://www.w3.org/1999/xlink">
    <!-- Generator: Sketch 49.3 (51167) - http://www.bohemiancoding.com/sketch -->
    <title>photo</title>
    <desc>Created with Sketch.</desc>
    <defs></defs>
    <g id="Symbols" stroke="none" stroke-width="1" fill="none" fill-rule="evenodd">
        <g id="Progressbar__Icon/Upload" transform="translate(-18.000000, -12.000000)" fill="#E4ECF4" fill-rule="nonzero">
            <g id="photo" transform="translate(18.000000, 12.000000)">
                <circle id="Oval" cx="10.1935484" cy="7.76774194" r="1.85806452"></circle>
                <path d="M25.4451613,14.6064516 C24.5677419,13.7806452 23.4580645,13.2387097 22.2451613,13.083871 L22.2451613,3.63870968 C22.2451613,2.63225806 21.8322581,1.72903226 21.1870968,1.05806452 C20.516129,0.387096774 19.6129032,0 18.6064516,0 L3.63870968,0 C2.63225806,0 1.72903226,0.412903226 1.05806452,1.05806452 C0.387096774,1.72903226 0,2.63225806 0,3.63870968 L0,15.5354839 L0,16.6451613 L0,19.0451613 C0,20.0516129 0.412903226,20.9548387 1.05806452,21.6258065 C1.72903226,22.2967742 2.63225806,22.683871 3.63870968,22.683871 L18.116129,22.683871 C19.0709677,23.4580645 20.2580645,23.9483871 21.5741935,23.9483871 C23.0967742,23.9483871 24.4645161,23.3290323 25.4451613,22.3483871 C26.4258065,21.3677419 27.0451613,20 27.0451613,18.4774194 C27.0451613,16.9548387 26.4258065,15.5870968 25.4451613,14.6064516 Z M1.36774194,3.63870968 C1.36774194,3.01935484 1.62580645,2.4516129 2.03870968,2.06451613 C2.4516129,1.6516129 3.01935484,1.39354839 3.63870968,1.39354839 L18.6064516,1.39354839 C19.2258065,1.39354839 19.7935484,1.6516129 20.2064516,2.06451613 C20.6193548,2.47741935 20.8774194,3.04516129 20.8774194,3.66451613 L20.8774194,11.716129 L17.0580645,7.89677419 C16.8,7.63870968 16.3612903,7.61290323 16.0774194,7.89677419 L10.3225806,13.6774194 L6.42580645,9.75483871 C6.16774194,9.49677419 5.72903226,9.47096774 5.44516129,9.75483871 L1.36774194,13.883871 L1.36774194,3.63870968 Z M3.61290323,21.3677419 L3.61290323,21.316129 C2.99354839,21.316129 2.42580645,21.0580645 2.01290323,20.6451613 C1.62580645,20.2322581 1.36774194,19.6645161 1.36774194,19.0451613 L1.36774194,16.6451613 L1.36774194,15.8451613 L5.93548387,11.2516129 L9.83225806,15.1483871 C10.0903226,15.4064516 10.5290323,15.4064516 10.8129032,15.1483871 L16.5677419,9.36774194 L20.3354839,13.1612903 C20.2580645,13.1870968 20.1806452,13.2129032 20.1032258,13.2387097 C20,13.2645161 19.8967742,13.2903226 19.7677419,13.3419355 C19.6645161,13.3677419 19.5612903,13.4193548 19.4580645,13.4451613 C19.3806452,13.4709677 19.3290323,13.4967742 19.2516129,13.5483871 C19.1483871,13.6 19.0709677,13.6258065 18.9935484,13.6774194 C18.8645161,13.7548387 18.7354839,13.8322581 18.6064516,13.9096774 C18.5290323,13.9612903 18.4774194,13.9870968 18.4,14.0387097 C18.3483871,14.0645161 18.3225806,14.0903226 18.2709677,14.116129 C18.0387097,14.2709677 17.8322581,14.4516129 17.6516129,14.6580645 C16.6709677,15.6387097 16.0516129,17.0064516 16.0516129,18.5290323 C16.0516129,18.916129 16.1032258,19.2774194 16.1806452,19.6645161 C16.2064516,19.7677419 16.2322581,19.8451613 16.2580645,19.9483871 C16.3354839,20.2064516 16.4129032,20.4645161 16.516129,20.7225806 L16.516129,20.7483871 C16.6193548,20.9548387 16.7225806,21.1870968 16.8516129,21.3677419 L3.61290323,21.3677419 Z M24.4387097,21.3677419 C23.6903226,22.116129 22.683871,22.5548387 21.5483871,22.5548387 C20.4645161,22.5548387 19.4580645,22.116129 18.7354839,21.4193548 C18.6322581,21.316129 18.5290323,21.1870968 18.4258065,21.083871 C18.3483871,21.0064516 18.2709677,20.9032258 18.1935484,20.8258065 C18.0903226,20.6967742 18.0129032,20.5419355 17.9354839,20.3870968 C17.883871,20.283871 17.8322581,20.2064516 17.7806452,20.1032258 C17.7290323,19.9741935 17.6774194,19.8193548 17.6516129,19.6645161 C17.6258065,19.5612903 17.5741935,19.4322581 17.5483871,19.3290323 C17.4967742,19.0709677 17.4709677,18.7870968 17.4709677,18.5032258 C17.4709677,17.3677419 17.9354839,16.3612903 18.6580645,15.6129032 C19.3806452,14.8645161 20.4129032,14.4258065 21.5483871,14.4258065 C22.683871,14.4258065 23.6903226,14.8903226 24.4387097,15.6129032 C25.1870968,16.3612903 25.6258065,17.3677419 25.6258065,18.5032258 C25.6258065,19.6129032 25.1612903,20.6193548 24.4387097,21.3677419 Z" id="Shape"></path>
                <path d="M22.0387097,15.716129 C21.9870968,15.6645161 21.9096774,15.6129032 21.8064516,15.5612903 C21.7290323,15.5354839 21.6516129,15.5096774 21.5741935,15.5096774 C21.5483871,15.5096774 21.5483871,15.5096774 21.5483871,15.5096774 C21.5225806,15.5096774 21.5225806,15.5096774 21.5225806,15.5096774 C21.4451613,15.5096774 21.3677419,15.5354839 21.2903226,15.5612903 C21.2129032,15.5870968 21.1354839,15.6387097 21.0580645,15.716129 L19.4580645,17.316129 C19.2,17.5741935 19.2,18.0129032 19.4580645,18.2967742 C19.716129,18.5548387 20.1548387,18.5548387 20.4387097,18.2967742 L20.8516129,17.883871 L20.8516129,20.7225806 C20.8516129,21.1096774 21.1612903,21.4193548 21.5483871,21.4193548 C21.9354839,21.4193548 22.2451613,21.1096774 22.2451613,20.7225806 L22.2451613,17.883871 L22.6580645,18.2967742 C22.916129,18.5548387 23.3548387,18.5548387 23.6387097,18.2967742 C23.8967742,18.0387097 23.8967742,17.6 23.6387097,17.316129 L22.0387097,15.716129 Z" id="Shape"></path>
            </g>
        </g>
    </g>
</svg>